<svg width="65" height="54" viewBox="0 0 65 54" fill="none" xmlns="http://www.w3.org/2000/svg">
<path d="M0 5.75326C0 2.57582 2.61098 0 5.83178 0H12.6419C15.8627 0 18.4737 2.57582 18.4737 5.75326V52.0822C18.4737 53.1413 17.6034 53.9999 16.5298 53.9999H1.94392C0.870323 53.9999 0 53.1413 0 52.0822V5.75326Z" fill="url(#paint0_linear)"/>
<path d="M23.2632 24.6533C23.2632 21.4759 25.8741 18.9 29.0949 18.9H35.9051C39.1259 18.9 41.7368 21.4759 41.7368 24.6533V52.0822C41.7368 53.1414 40.8665 54 39.7929 54H25.2071C24.1335 54 23.2632 53.1414 23.2632 52.0822V24.6533Z" fill="url(#paint1_linear)"/>
<path d="M46.5263 39.5033C46.5263 36.3259 49.1373 33.75 52.3581 33.75H59.1682C62.389 33.75 65 36.3258 65 39.5033V52.0822C65 53.1414 64.1297 54 63.0561 54H48.4702C47.3966 54 46.5263 53.1414 46.5263 52.0822V39.5033Z" fill="url(#paint2_linear)"/>
<defs>
<linearGradient id="paint0_linear" x1="7.28972" y1="-5.75326" x2="54.4709" y2="70.5735" gradientUnits="userSpaceOnUse">
<stop stop-color="white"/>
<stop offset="1" stop-color="white" stop-opacity="0"/>
</linearGradient>
<linearGradient id="paint1_linear" x1="7.28972" y1="-5.75326" x2="54.4709" y2="70.5735" gradientUnits="userSpaceOnUse">
<stop stop-color="white"/>
<stop offset="1" stop-color="white" stop-opacity="0"/>
</linearGradient>
<linearGradient id="paint2_linear" x1="7.28972" y1="-5.75326" x2="54.4709" y2="70.5735" gradientUnits="userSpaceOnUse">
<stop stop-color="white"/>
<stop offset="1" stop-color="white" stop-opacity="0"/>
</linearGradient>
</defs>
</svg>
