<svg width="47" height="70" viewBox="0 0 47 70" fill="none" xmlns="http://www.w3.org/2000/svg">
<path fill-rule="evenodd" clip-rule="evenodd" d="M43.5451 35C45.5304 31.568 46.6667 27.5834 46.6667 23.3333C46.6667 10.4467 36.22 0 23.3333 0C10.4467 0 0 10.4467 0 23.3333C0 27.5834 1.13627 31.568 3.12159 35C1.13627 38.432 0 42.4166 0 46.6667C0 59.5533 10.4467 70 23.3333 70C36.22 70 46.6667 59.5533 46.6667 46.6667C46.6667 42.4166 45.5304 38.432 43.5451 35ZM43.5451 35C39.5106 28.0257 31.97 23.3333 23.3333 23.3333C14.6967 23.3333 7.15603 28.0257 3.12159 35C7.15603 41.9744 14.6967 46.6667 23.3333 46.6667C31.97 46.6667 39.5106 41.9744 43.5451 35Z" fill="url(#paint0_linear)"/>
<defs>
<linearGradient id="paint0_linear" x1="7.5" y1="-10" x2="40.5" y2="81.5" gradientUnits="userSpaceOnUse">
<stop stop-color="white"/>
<stop offset="1" stop-color="white" stop-opacity="0"/>
</linearGradient>
</defs>
</svg>
