<svg width="67" height="70" viewBox="0 0 67 70" fill="none" xmlns="http://www.w3.org/2000/svg">
<path d="M46.6667 35C46.6667 42.3638 40.6971 48.3333 33.3333 48.3333C25.9695 48.3333 20 42.3638 20 35C20 27.6362 25.9695 21.6667 33.3333 21.6667C40.6971 21.6667 46.6667 27.6362 46.6667 35Z" fill="url(#paint0_linear)"/>
<path d="M27.7778 6.11111C27.7778 9.48619 30.5138 12.2222 33.8889 12.2222C37.264 12.2222 40 9.48619 40 6.11111C40 2.73604 37.264 0 33.8889 0C30.5138 0 27.7778 2.73604 27.7778 6.11111Z" fill="url(#paint1_linear)"/>
<path d="M8.33333 53.8889C8.33333 56.0367 10.0744 57.7778 12.2222 57.7778C14.37 57.7778 16.1111 56.0367 16.1111 53.8889C16.1111 51.7411 14.37 50 12.2222 50C10.0744 50 8.33333 51.7411 8.33333 53.8889Z" fill="url(#paint2_linear)"/>
<path d="M50.5556 13.8889C50.5556 16.0367 52.2967 17.7778 54.4444 17.7778C56.5922 17.7778 58.3333 16.0367 58.3333 13.8889C58.3333 11.7411 56.5922 10 54.4444 10C52.2967 10 50.5556 11.7411 50.5556 13.8889Z" fill="url(#paint3_linear)"/>
<path d="M50.5556 53.8889C50.5556 56.0367 52.2967 57.7778 54.4444 57.7778C56.5922 57.7778 58.3333 56.0367 58.3333 53.8889C58.3333 51.7411 56.5922 50 54.4444 50C52.2967 50 50.5556 51.7411 50.5556 53.8889Z" fill="url(#paint4_linear)"/>
<path d="M8.33333 13.8889C8.33333 16.0367 10.0744 17.7778 12.2222 17.7778C14.37 17.7778 16.1111 16.0367 16.1111 13.8889C16.1111 11.7411 14.37 10 12.2222 10C10.0744 10 8.33333 11.7411 8.33333 13.8889Z" fill="url(#paint5_linear)"/>
<path d="M27.7778 63.8889C27.7778 67.264 30.5138 70 33.8889 70C37.264 70 40 67.264 40 63.8889C40 60.5138 37.264 57.7778 33.8889 57.7778C30.5138 57.7778 27.7778 60.5138 27.7778 63.8889Z" fill="url(#paint6_linear)"/>
<path d="M0 35C0 38.3751 2.73604 41.1111 6.11111 41.1111C9.48619 41.1111 12.2222 38.3751 12.2222 35C12.2222 31.6249 9.48619 28.8889 6.11111 28.8889C2.73604 28.8889 0 31.6249 0 35Z" fill="url(#paint7_linear)"/>
<path d="M54.4444 35C54.4444 38.3751 57.1805 41.1111 60.5556 41.1111C63.9306 41.1111 66.6667 38.3751 66.6667 35C66.6667 31.6249 63.9306 28.8889 60.5556 28.8889C57.1805 28.8889 54.4444 31.6249 54.4444 35Z" fill="url(#paint8_linear)"/>
<defs>
<linearGradient id="paint0_linear" x1="11.5" y1="1.25813e-06" x2="39.5" y2="81.5" gradientUnits="userSpaceOnUse">
<stop stop-color="white"/>
<stop offset="1" stop-color="white" stop-opacity="0"/>
</linearGradient>
<linearGradient id="paint1_linear" x1="11.5" y1="1.25813e-06" x2="39.5" y2="81.5" gradientUnits="userSpaceOnUse">
<stop stop-color="white"/>
<stop offset="1" stop-color="white" stop-opacity="0"/>
</linearGradient>
<linearGradient id="paint2_linear" x1="11.5" y1="1.25813e-06" x2="39.5" y2="81.5" gradientUnits="userSpaceOnUse">
<stop stop-color="white"/>
<stop offset="1" stop-color="white" stop-opacity="0"/>
</linearGradient>
<linearGradient id="paint3_linear" x1="11.5" y1="1.25813e-06" x2="39.5" y2="81.5" gradientUnits="userSpaceOnUse">
<stop stop-color="white"/>
<stop offset="1" stop-color="white" stop-opacity="0"/>
</linearGradient>
<linearGradient id="paint4_linear" x1="11.5" y1="1.25813e-06" x2="39.5" y2="81.5" gradientUnits="userSpaceOnUse">
<stop stop-color="white"/>
<stop offset="1" stop-color="white" stop-opacity="0"/>
</linearGradient>
<linearGradient id="paint5_linear" x1="11.5" y1="1.25813e-06" x2="39.5" y2="81.5" gradientUnits="userSpaceOnUse">
<stop stop-color="white"/>
<stop offset="1" stop-color="white" stop-opacity="0"/>
</linearGradient>
<linearGradient id="paint6_linear" x1="11.5" y1="1.25813e-06" x2="39.5" y2="81.5" gradientUnits="userSpaceOnUse">
<stop stop-color="white"/>
<stop offset="1" stop-color="white" stop-opacity="0"/>
</linearGradient>
<linearGradient id="paint7_linear" x1="11.5" y1="1.25813e-06" x2="39.5" y2="81.5" gradientUnits="userSpaceOnUse">
<stop stop-color="white"/>
<stop offset="1" stop-color="white" stop-opacity="0"/>
</linearGradient>
<linearGradient id="paint8_linear" x1="11.5" y1="1.25813e-06" x2="39.5" y2="81.5" gradientUnits="userSpaceOnUse">
<stop stop-color="white"/>
<stop offset="1" stop-color="white" stop-opacity="0"/>
</linearGradient>
</defs>
</svg>
