<svg width="24" height="24" viewBox="0 0 24 24" fill="none" xmlns="http://www.w3.org/2000/svg">
<path opacity="0.4" d="M16.6756 2H7.33333C3.92889 2 2 3.92889 2 7.33333V16.6667C2 20.0711 3.92889 22 7.33333 22H16.6756C20.08 22 22 20.0711 22 16.6667V7.33333C22 3.92889 20.08 2 16.6756 2Z" fill="white"/>
<path d="M7.36866 9.36902C6.91533 9.36902 6.54199 9.74235 6.54199 10.2046V17.0757C6.54199 17.529 6.91533 17.9024 7.36866 17.9024C7.83088 17.9024 8.20421 17.529 8.20421 17.0757V10.2046C8.20421 9.74235 7.83088 9.36902 7.36866 9.36902Z" fill="white"/>
<path d="M12.0354 6.08899C11.5821 6.08899 11.2087 6.46232 11.2087 6.92454V17.0757C11.2087 17.529 11.5821 17.9023 12.0354 17.9023C12.4976 17.9023 12.871 17.529 12.871 17.0757V6.92454C12.871 6.46232 12.4976 6.08899 12.0354 6.08899Z" fill="white"/>
<path d="M16.64 12.9956C16.1778 12.9956 15.8044 13.3689 15.8044 13.8312V17.0756C15.8044 17.5289 16.1778 17.9023 16.6311 17.9023C17.0933 17.9023 17.4667 17.5289 17.4667 17.0756V13.8312C17.4667 13.3689 17.0933 12.9956 16.64 12.9956Z" fill="white"/>
</svg>
