<svg width="18" height="18" viewBox="0 0 18 18" fill="none" xmlns="http://www.w3.org/2000/svg">
<path opacity="0.4" d="M12.0565 1.5H14.596C15.6477 1.5 16.4998 2.35939 16.4998 3.41997V5.98089C16.4998 7.04148 15.6477 7.90087 14.596 7.90087H12.0565C11.0048 7.90087 10.1526 7.04148 10.1526 5.98089V3.41997C10.1526 2.35939 11.0048 1.5 12.0565 1.5Z" fill="white" fill-opacity="0.8"/>
<path d="M5.94337 10.0991C6.99507 10.0991 7.84726 10.9585 7.84726 12.0191V14.58C7.84726 15.6399 6.99507 16.5 5.94337 16.5H3.40389C2.35219 16.5 1.5 15.6399 1.5 14.58V12.0191C1.5 10.9585 2.35219 10.0991 3.40389 10.0991H5.94337ZM14.5961 10.0991C15.6478 10.0991 16.5 10.9585 16.5 12.0191V14.58C16.5 15.6399 15.6478 16.5 14.5961 16.5H12.0566C11.0049 16.5 10.1527 15.6399 10.1527 14.58V12.0191C10.1527 10.9585 11.0049 10.0991 12.0566 10.0991H14.5961ZM5.94337 1.5C6.99507 1.5 7.84726 2.35939 7.84726 3.41997V5.98089C7.84726 7.04148 6.99507 7.90087 5.94337 7.90087H3.40389C2.35219 7.90087 1.5 7.04148 1.5 5.98089V3.41997C1.5 2.35939 2.35219 1.5 3.40389 1.5H5.94337Z" fill="white" fill-opacity="0.8"/>
</svg>
