<svg width="16" height="16" viewBox="0 0 16 16" fill="none" xmlns="http://www.w3.org/2000/svg">
<path d="M12.6249 9.78489C12.1211 9.67652 11.7226 9.91041 11.3697 10.1147C11.0083 10.3252 10.3211 10.8826 9.92723 10.74C7.91057 9.90964 6.01385 8.14451 5.1928 6.11977C5.04809 5.71747 5.60294 5.02592 5.81188 4.66027C6.01463 4.30631 6.24369 3.90401 6.13922 3.39646C6.04481 2.94037 4.82367 1.38653 4.39186 0.961621C4.10708 0.680948 3.81534 0.526577 3.51586 0.501629C2.3899 0.453291 1.13239 1.95567 0.911845 2.31509C0.359315 3.08148 0.36241 4.10126 0.921131 5.33778C2.26763 8.65908 7.36036 13.6714 10.6941 15.0686C11.3093 15.3563 11.8719 15.5005 12.3772 15.5005C12.8717 15.5005 13.3121 15.3625 13.6905 15.0888C13.976 14.9243 15.54 13.6044 15.499 12.4482C15.4742 12.1535 15.3202 11.8588 15.0432 11.5734C14.6214 11.1376 13.0776 9.88001 12.6249 9.78489Z" fill="white"/>
</svg>
