<svg width="16" height="14" viewBox="0 0 16 14" fill="none" xmlns="http://www.w3.org/2000/svg">
<path d="M11.7045 0.25C12.7102 0.25 13.6777 0.6475 14.3895 1.36075C15.102 2.0725 15.5002 3.0325 15.5002 4.0375V9.9625C15.5002 12.055 13.7977 13.75 11.7045 13.75H4.29524C2.20199 13.75 0.500244 12.055 0.500244 9.9625V4.0375C0.500244 1.945 2.19449 0.25 4.29524 0.25H11.7045ZM12.5527 4.15C12.3952 4.14175 12.2452 4.195 12.132 4.3L8.75025 7C8.31524 7.36075 7.69199 7.36075 7.25024 7L3.87524 4.3C3.64199 4.1275 3.31949 4.15 3.12524 4.3525C2.92274 4.555 2.90024 4.8775 3.07199 5.1025L3.17024 5.2L6.58274 7.8625C7.00274 8.1925 7.51199 8.3725 8.04525 8.3725C8.57699 8.3725 9.09524 8.1925 9.51449 7.8625L12.8977 5.155L12.9577 5.095C13.137 4.8775 13.137 4.5625 12.9495 4.345C12.8452 4.23325 12.702 4.165 12.5527 4.15Z" fill="white"/>
</svg>
