<svg width="19" height="17" viewBox="0 0 19 17" fill="none" xmlns="http://www.w3.org/2000/svg">
<path d="M5.08004 15.9998C6.55874 16.0493 8.03235 15.8018 9.41378 15.2721C10.7952 14.7424 12.0565 13.9411 13.1229 12.9156C14.1894 11.8901 15.0395 10.6613 15.623 9.30168C16.2065 7.94207 16.5115 6.4793 16.52 4.9998C17.1977 4.16121 17.7009 3.19563 18 2.1598C18.0224 2.07796 18.0206 1.99141 17.9949 1.91057C17.9691 1.82974 17.9206 1.75806 17.8551 1.70417C17.7896 1.65027 17.7099 1.61647 17.6256 1.60683C17.5413 1.59718 17.456 1.6121 17.38 1.6498C17.0255 1.82045 16.6264 1.87558 16.2389 1.80741C15.8514 1.73923 15.495 1.5512 15.22 1.2698C14.869 0.885378 14.4444 0.57533 13.9713 0.358027C13.4982 0.140724 12.9863 0.0205868 12.466 0.00473384C11.9456 -0.0111191 11.4274 0.077635 10.942 0.265737C10.4566 0.453839 10.0138 0.737461 9.64004 1.0998C9.12824 1.59546 8.75336 2.21509 8.55185 2.89847C8.35034 3.58186 8.32905 4.30575 8.49004 4.9998C5.14004 5.1998 2.84004 3.6098 1.00004 1.4298C0.944764 1.3672 0.872455 1.32205 0.791944 1.29987C0.711433 1.27769 0.626205 1.27943 0.546666 1.30488C0.467128 1.33033 0.396723 1.37839 0.344047 1.4432C0.291372 1.508 0.258707 1.58674 0.250041 1.6698C-0.100489 3.61422 0.152371 5.61935 0.97466 7.41587C1.79695 9.21239 3.14929 10.7143 4.85004 11.7198C3.70968 13.0276 2.10825 13.8445 0.380041 13.9998C0.287454 14.0152 0.201983 14.0591 0.135593 14.1254C0.0692023 14.1917 0.0252145 14.2772 0.00978526 14.3698C-0.00564397 14.4623 0.00825779 14.5574 0.0495449 14.6417C0.090832 14.726 0.157438 14.7952 0.240041 14.8398C1.74356 15.5912 3.39927 15.988 5.08004 15.9998Z" fill="white"/>
</svg>
